# The Great Editor v0.0.1
mtllib floor_1.mtl
o floor_1
v 21.520077162907068 -42.019536397393004 0
v 21.520077162907068 -42.019536397393004 -0.1
v 25.8445674503051 -42.98604004856916 0
v 25.8445674503051 -42.98604004856916 -0.1
v 25.715438387421884 -43.40565469507859 0
v 25.715438387421884 -43.40565469507859 -0.1
v 25.648461956073163 -43.8028034606917 0
v 25.648461956073163 -43.8028034606917 -0.1
v 25.564348768377165 -44.31390811679135 0
v 25.564348768377165 -44.31390811679135 -0.1
v 25.564349169819543 -44.77971643180959 0
v 25.564349169819543 -44.77971643180959 -0.1
v 25.629054659042836 -45.40727303840915 0
v 25.629054659042836 -45.40727303840915 -0.1
v 25.75843694906353 -45.918377510514375 0
v 25.75843694906353 -45.918377510514375 -0.1
v 25.946073347972874 -46.455341473988284 0
v 25.946073347972874 -46.455341473988284 -0.1
v 26.20483752657188 -47.01174210318052 0
v 26.20483752657188 -47.01174210318052 -0.1
v 26.618899213021663 -47.59400214010758 0
v 26.618899213021663 -47.59400214010758 -0.1
v 27.000622298351562 -48.00158408677269 0
v 27.000622298351562 -48.00158408677269 -0.1
v 27.483315397812206 -48.413401077415116 0
v 27.483315397812206 -48.413401077415116 -0.1
v 28.50532872102901 -48.97799083856385 0
v 28.50532872102901 -48.97799083856385 -0.1
v 29.041339437652002 -49.20668745035897 0
v 29.041339437652002 -49.20668745035897 -0.1
v 29.784591002239186 -49.32103534668039 0
v 29.784591002239186 -49.32103534668039 -0.1
v 30.47071030763999 -49.36391896259911 0
v 30.47071030763999 -49.36391896259911 -0.1
v 31.013844797720576 -49.335338372104445 0
v 31.013844797720576 -49.335338372104445 -0.1
v 31.678507791102113 -49.16380097036834 0
v 31.678507791102113 -49.16380097036834 -0.1
v 32.15763835955133 -48.95667179983307 0
v 32.15763835955133 -48.95667179983307 -0.1
v 32.70228718529011 -48.67920013219789 0
v 32.70228718529011 -48.67920013219789 -0.1
v 33.781319189286776 -47.70295943704308 0
v 33.781319189286776 -47.70295943704308 -0.1
v 34.12523382535289 -47.19412638227746 0
v 34.12523382535289 -47.19412638227746 -0.1
v 34.49038009595736 -46.55198484815409 0
v 34.49038009595736 -46.55198484815409 -0.1
v 34.76785067424982 -45.83262937879852 0
v 34.76785067424982 -45.83262937879852 -0.1
v 34.89114562057165 -45.072184857493724 0
v 34.89114562057165 -45.072184857493724 -0.1
v 34.85005560325597 -44.10621041208007 0
v 34.85005560325597 -44.10621041208007 -0.1
v 34.695907460532624 -43.41767921512346 0
v 34.695907460532624 -43.41767921512346 -0.1
v 34.17375126871804 -42.25559898616766 0
v 34.17375126871804 -42.25559898616766 -0.1
v 33.8490761568604 -41.752347905406864 0
v 33.8490761568604 -41.752347905406864 -0.1
v 33.36203567269992 -41.26533630792796 0
v 33.36203567269992 -41.26533630792796 -0.1
v 32.84257265224235 -40.84325406457565 0
v 32.84257265224235 -40.84325406457565 -0.1
v 32.13909180967966 -40.44669495468493 0
v 32.13909180967966 -40.44669495468493 -0.1
v 31.5150408835286 -40.253001355731236 0
v 31.5150408835286 -40.253001355731236 -0.1
v 35.175904406872675 -39.62964862213615 0
v 35.175904406872675 -39.62964862213615 -0.1
v 41.898712089956575 -39.63830942086011 0
v 41.898712089956575 -39.63830942086011 -0.1
v 44.749123561602275 -39.671430737204574 0
v 44.749123561602275 -39.671430737204574 -0.1
v 47.23494923089262 -39.79407911038234 0
v 47.23494923089262 -39.79407911038234 -0.1
v 48.54388518065093 -39.79407798231668 0
v 48.54388518065093 -39.79407798231668 -0.1
v 51.996891401886245 -39.96364852960852 0
v 51.996891401886245 -39.96364852960852 -0.1
v 58.51346780472275 -39.93304339087947 0
v 58.51346780472275 -39.93304339087947 -0.1
v 58.45143448336434 -48.2185864099539 0
v 58.45143448336434 -48.2185864099539 -0.1
v 51.85416618744731 -48.21859209560401 0
v 51.85416618744731 -48.21859209560401 -0.1
v 51.85416529633611 -47.18460309383003 0
v 51.85416529633611 -47.18460309383003 -0.1
v 48.78787436138405 -47.18460573641732 0
v 48.78787436138405 -47.18460573641732 -0.1
v 48.78787537835691 -48.36463663946177 0
v 48.78787537835691 -48.36463663946177 -0.1
v 42.18841939887947 -48.36464232699728 0
v 42.18841939887947 -48.36464232699728 -0.1
v 42.18842055174522 -49.70235472974262 0
v 42.18842055174522 -49.70235472974262 -0.1
v 35.37796529758797 -49.70236059912127 0
v 35.37796529758797 -49.70236059912127 -0.1
v 35.37796845237205 -53.36297223465357 0
v 35.37796845237205 -53.36297223465357 -0.1
v 41.97686348734681 -53.36296654760151 0
v 41.97686348734681 -53.36296654760151 -0.1
v 41.976875335577404 -67.1109029385459 0
v 41.976875335577404 -67.1109029385459 -0.1
v 35.22540339587605 -67.11090875709161 0
v 35.22540339587605 -67.11090875709161 -0.1
v 35.225406720755856 -70.9688887158888 0
v 35.225406720755856 -70.9688887158888 -0.1
v 42.1522579592174 -70.96888274619792 0
v 42.1522579592174 -70.96888274619792 -0.1
v 42.152264268954745 -78.29030234783843 0
v 42.152264268954745 -78.29030234783843 -0.1
v 31.849649013417398 -78.29031122682636 0
v 31.849649013417398 -78.29031122682636 -0.1
v 31.849645764098092 -74.5200068937967 0
v 31.849645764098092 -74.5200068937967 -0.1
v 28.69312690589135 -74.52000961414413 0
v 28.69312690589135 -74.52000961414413 -0.1
v 28.69313019299091 -78.33415176005755 0
v 28.69313019299091 -78.33415176005755 -0.1
v 18.43435275033732 -78.33416060126521 0
v 18.43435275033732 -78.33416060126521 -0.1
v 18.43434656443122 -71.15642693398394 0
v 18.43434656443122 -71.15642693398394 -0.1
v 25.226515027801376 -71.15642108036519 0
v 25.226515027801376 -71.15642108036519 -0.1
v 25.226511509355177 -67.07383894269844 0
v 25.226511509355177 -67.07383894269844 -0.1
v 18.358082640846852 -67.07384486203983 0
v 18.358082640846852 -67.07384486203983 -0.1
v 18.358071309985764 -53.92623127785424 0
v 18.358071309985764 -53.92623127785424 -0.1
v 25.221030969593045 -53.92622536322631 0
v 25.221030969593045 -53.92622536322631 -0.1
v 25.221027199834438 -49.55203622584587 0
v 25.221027199834438 -49.55203622584587 -0.1
v 21.516213124148912 -49.5365573504507 0
v 21.516213124148912 -49.5365573504507 -0.1
vt 21.520077162907068 -42.019536397393004 0
vt 25.8445674503051 -42.98604004856916 0
vt 25.715438387421884 -43.40565469507859 0
vt 25.648461956073163 -43.8028034606917 0
vt 25.564348768377165 -44.31390811679135 0
vt 25.564349169819543 -44.77971643180959 0
vt 25.629054659042836 -45.40727303840915 0
vt 25.75843694906353 -45.918377510514375 0
vt 25.946073347972874 -46.455341473988284 0
vt 26.20483752657188 -47.01174210318052 0
vt 26.618899213021663 -47.59400214010758 0
vt 27.000622298351562 -48.00158408677269 0
vt 27.483315397812206 -48.413401077415116 0
vt 28.50532872102901 -48.97799083856385 0
vt 29.041339437652002 -49.20668745035897 0
vt 29.784591002239186 -49.32103534668039 0
vt 30.47071030763999 -49.36391896259911 0
vt 31.013844797720576 -49.335338372104445 0
vt 31.678507791102113 -49.16380097036834 0
vt 32.15763835955133 -48.95667179983307 0
vt 32.70228718529011 -48.67920013219789 0
vt 33.781319189286776 -47.70295943704308 0
vt 34.12523382535289 -47.19412638227746 0
vt 34.49038009595736 -46.55198484815409 0
vt 34.76785067424982 -45.83262937879852 0
vt 34.89114562057165 -45.072184857493724 0
vt 34.85005560325597 -44.10621041208007 0
vt 34.695907460532624 -43.41767921512346 0
vt 34.17375126871804 -42.25559898616766 0
vt 33.8490761568604 -41.752347905406864 0
vt 33.36203567269992 -41.26533630792796 0
vt 32.84257265224235 -40.84325406457565 0
vt 32.13909180967966 -40.44669495468493 0
vt 31.5150408835286 -40.253001355731236 0
vt 35.175904406872675 -39.62964862213615 0
vt 41.898712089956575 -39.63830942086011 0
vt 44.749123561602275 -39.671430737204574 0
vt 47.23494923089262 -39.79407911038234 0
vt 48.54388518065093 -39.79407798231668 0
vt 51.996891401886245 -39.96364852960852 0
vt 58.51346780472275 -39.93304339087947 0
vt 58.45143448336434 -48.2185864099539 0
vt 51.85416618744731 -48.21859209560401 0
vt 51.85416529633611 -47.18460309383003 0
vt 48.78787436138405 -47.18460573641732 0
vt 48.78787537835691 -48.36463663946177 0
vt 42.18841939887947 -48.36464232699728 0
vt 42.18842055174522 -49.70235472974262 0
vt 35.37796529758797 -49.70236059912127 0
vt 35.37796845237205 -53.36297223465357 0
vt 41.97686348734681 -53.36296654760151 0
vt 41.976875335577404 -67.1109029385459 0
vt 35.22540339587605 -67.11090875709161 0
vt 35.225406720755856 -70.9688887158888 0
vt 42.1522579592174 -70.96888274619792 0
vt 42.152264268954745 -78.29030234783843 0
vt 31.849649013417398 -78.29031122682636 0
vt 31.849645764098092 -74.5200068937967 0
vt 28.69312690589135 -74.52000961414413 0
vt 28.69313019299091 -78.33415176005755 0
vt 18.43435275033732 -78.33416060126521 0
vt 18.43434656443122 -71.15642693398394 0
vt 25.226515027801376 -71.15642108036519 0
vt 25.226511509355177 -67.07383894269844 0
vt 18.358082640846852 -67.07384486203983 0
vt 18.358071309985764 -53.92623127785424 0
vt 25.221030969593045 -53.92622536322631 0
vt 25.221027199834438 -49.55203622584587 0
vt 21.516213124148912 -49.5365573504507 0
vn 0 0 1
vn 0 0 -1
usemtl floor_1
s off
f 1/1/1 137/69/1 13/7/1
f 14/7/2 138/69/2 2/1/2
f 1/1/1 13/7/1 11/6/1
f 12/6/2 14/7/2 2/1/2
f 1/1/1 11/6/1 9/5/1
f 10/5/2 12/6/2 2/1/2
f 1/1/1 9/5/1 7/4/1
f 8/4/2 10/5/2 2/1/2
f 1/1/1 7/4/1 5/3/1
f 6/3/2 8/4/2 2/1/2
f 1/1/1 5/3/1 3/2/1
f 4/2/2 6/3/2 2/1/2
f 67/34/1 65/33/1 69/35/1
f 70/35/2 66/33/2 68/34/2
f 69/35/1 65/33/1 63/32/1
f 64/32/2 66/33/2 70/35/2
f 69/35/1 63/32/1 61/31/1
f 62/31/2 64/32/2 70/35/2
f 69/35/1 61/31/1 59/30/1
f 60/30/2 62/31/2 70/35/2
f 69/35/1 59/30/1 57/29/1
f 58/29/2 60/30/2 70/35/2
f 69/35/1 57/29/1 55/28/1
f 56/28/2 58/29/2 70/35/2
f 69/35/1 55/28/1 71/36/1
f 72/36/2 56/28/2 70/35/2
f 71/36/1 55/28/1 53/27/1
f 54/27/2 56/28/2 72/36/2
f 71/36/1 53/27/1 93/47/1
f 94/47/2 54/27/2 72/36/2
f 71/36/1 93/47/1 73/37/1
f 74/37/2 94/47/2 72/36/2
f 73/37/1 93/47/1 89/45/1
f 90/45/2 94/47/2 74/37/2
f 73/37/1 89/45/1 75/38/1
f 76/38/2 90/45/2 74/37/2
f 81/41/1 79/40/1 87/44/1
f 88/44/2 80/40/2 82/41/2
f 81/41/1 87/44/1 83/42/1
f 84/42/2 88/44/2 82/41/2
f 111/56/1 109/55/1 107/54/1
f 108/54/2 110/55/2 112/56/2
f 111/56/1 107/54/1 115/58/1
f 116/58/2 108/54/2 112/56/2
f 111/56/1 115/58/1 113/57/1
f 114/57/2 116/58/2 112/56/2
f 119/60/1 117/59/1 121/61/1
f 122/61/2 118/59/2 120/60/2
f 121/61/1 117/59/1 125/63/1
f 126/63/2 118/59/2 122/61/2
f 121/61/1 125/63/1 123/62/1
f 124/62/2 126/63/2 122/61/2
f 129/65/1 127/64/1 133/67/1
f 134/67/2 128/64/2 130/65/2
f 129/65/1 133/67/1 131/66/1
f 132/66/2 134/67/2 130/65/2
f 137/69/1 135/68/1 17/9/1
f 18/9/2 136/68/2 138/69/2
f 137/69/1 17/9/1 15/8/1
f 16/8/2 18/9/2 138/69/2
f 137/69/1 15/8/1 13/7/1
f 14/7/2 16/8/2 138/69/2
f 17/9/1 135/68/1 19/10/1
f 20/10/2 136/68/2 18/9/2
f 23/12/1 21/11/1 135/68/1
f 136/68/2 22/11/2 24/12/2
f 23/12/1 135/68/1 25/13/1
f 26/13/2 136/68/2 24/12/2
f 27/14/1 25/13/1 135/68/1
f 136/68/2 26/13/2 28/14/2
f 27/14/1 135/68/1 133/67/1
f 134/67/2 136/68/2 28/14/2
f 27/14/1 133/67/1 29/15/1
f 30/15/2 134/67/2 28/14/2
f 45/23/1 43/22/1 97/49/1
f 98/49/2 44/22/2 46/23/2
f 45/23/1 97/49/1 47/24/1
f 48/24/2 98/49/2 46/23/2
f 53/27/1 51/26/1 93/47/1
f 94/47/2 52/26/2 54/27/2
f 93/47/1 51/26/1 49/25/1
f 50/25/2 52/26/2 94/47/2
f 93/47/1 49/25/1 97/49/1
f 98/49/2 50/25/2 94/47/2
f 93/47/1 97/49/1 95/48/1
f 96/48/2 98/49/2 94/47/2
f 93/47/1 91/46/1 89/45/1
f 90/45/2 92/46/2 94/47/2
f 89/45/1 87/44/1 79/40/1
f 80/40/2 88/44/2 90/45/2
f 89/45/1 79/40/1 77/39/1
f 78/39/2 80/40/2 90/45/2
f 89/45/1 77/39/1 75/38/1
f 76/38/2 78/39/2 90/45/2
f 87/44/1 85/43/1 83/42/1
f 84/42/2 86/43/2 88/44/2
f 107/54/1 105/53/1 127/64/1
f 128/64/2 106/53/2 108/54/2
f 107/54/1 127/64/1 125/63/1
f 126/63/2 128/64/2 108/54/2
f 107/54/1 125/63/1 117/59/1
f 118/59/2 126/63/2 108/54/2
f 107/54/1 117/59/1 115/58/1
f 116/58/2 118/59/2 108/54/2
f 127/64/1 105/53/1 133/67/1
f 134/67/2 106/53/2 128/64/2
f 133/67/1 105/53/1 99/50/1
f 100/50/2 106/53/2 134/67/2
f 133/67/1 99/50/1 33/17/1
f 34/17/2 100/50/2 134/67/2
f 133/67/1 33/17/1 31/16/1
f 32/16/2 34/17/2 134/67/2
f 133/67/1 31/16/1 29/15/1
f 30/15/2 32/16/2 134/67/2
f 39/20/1 37/19/1 99/50/1
f 100/50/2 38/19/2 40/20/2
f 39/20/1 99/50/1 97/49/1
f 98/49/2 100/50/2 40/20/2
f 39/20/1 97/49/1 41/21/1
f 42/21/2 98/49/2 40/20/2
f 43/22/1 41/21/1 97/49/1
f 98/49/2 42/21/2 44/22/2
f 103/52/1 101/51/1 99/50/1
f 100/50/2 102/51/2 104/52/2
f 103/52/1 99/50/1 105/53/1
f 106/53/2 100/50/2 104/52/2
f 99/50/1 37/19/1 35/18/1
f 36/18/2 38/19/2 100/50/2
f 99/50/1 35/18/1 33/17/1
f 34/17/2 36/18/2 100/50/2
f 97/49/1 49/25/1 47/24/1
f 48/24/2 50/25/2 98/49/2
f 135/68/1 21/11/1 19/10/1
f 20/10/2 22/11/2 136/68/2
