# The Great Editor v0.0.1
mtllib floor_1.mtl
o floor_1
v 11.006884765342136 -0.7846241731634918 0
v 11.006884765342136 -0.7846241731634918 -0.1
v 12.544152466918634 -0.7846241731634918 0
v 12.544152466918634 -0.7846241731634918 -0.1
v 12.56537923671708 -1.0072625914104882 0
v 12.56537923671708 -1.0072625914104882 -0.1
v 18.68267374744032 -1.0178632044867277 0
v 18.68267374744032 -1.0178632044867277 -0.1
v 18.703874973592796 -0.7952247862397314 0
v 18.703874973592796 -0.7952247862397314 -0.1
v 19.92309873923614 -0.8164260123922102 0
v 19.92309873923614 -0.8164260123922102 -0.1
v 19.92309873923614 -1.0178632044867277 0
v 19.92309873923614 -1.0178632044867277 -0.1
v 21.07869328277608 -1.0390644306392067 0
v 21.07869328277608 -1.0390644306392067 -0.1
v 21.08929389585232 -0.8058253993159707 0
v 21.08929389585232 -0.8058253993159707 -0.1
v 22.319118274571906 -0.7952247862397314 0
v 22.319118274571906 -0.7952247862397314 -0.1
v 22.329718887648145 -1.0284638175629672 0
v 22.329718887648145 -1.0284638175629672 -0.1
v 28.527782406918536 -1.033521459464402 0
v 28.527782406918536 -1.033521459464402 -0.1
v 28.527782406918536 -0.7875872360956454 0
v 28.527782406918536 -0.7875872360956454 -0.1
v 30.080759450764642 -0.794611738736527 0
v 30.080759450764642 -0.794611738736527 -0.1
v 30.094374214064967 -36.25838805326156 0
v 30.094374214064967 -36.25838805326156 -0.1
v 29.368142815581677 -36.22681610684654 0
v 29.368142815581677 -36.22681610684654 -0.1
v 29.35235684237417 -38.484440168333954 0
v 29.35235684237417 -38.484440168333954 -0.1
v 32.46515662718549 -38.573204338068734 0
v 32.46515662718549 -38.573204338068734 -0.1
v 32.51711240308205 -44.5688344630519 0
v 32.51711240308205 -44.5688344630519 -0.1
v 5.722185394908121 -44.55506643787577 0
v 5.722185394908121 -44.55506643787577 -0.1
v 5.751713849645791 -37.768553946467236 0
v 5.751713849645791 -37.768553946467236 -0.1
v 5.064053356572432 -37.69802793995279 0
v 5.064053356572432 -37.69802793995279 -0.1
v 5.156138200282898 -25.340625068697737 0
v 5.156138200282898 -25.340625068697737 -0.1
v 5.64672946472207 -25.289001360198746 0
v 5.64672946472207 -25.289001360198746 -0.1
v 5.6767177050871425 -18.898747448673834 0
v 5.6767177050871425 -18.898747448673834 -0.1
v 3.5116638165835647 -18.86043197972357 0
v 3.5116638165835647 -18.86043197972357 -0.1
v 3.5116638165835647 -18.671357912277003 0
v 3.5116638165835647 -18.671357912277003 -0.1
v 2.6254781070559083 -18.635928875320996 0
v 2.6254781070559083 -18.635928875320996 -0.1
v 2.587188181751612 -9.472707844927628 0
v 2.587188181751612 -9.472707844927628 -0.1
v 5.966944610562404 -9.495773757235687 0
v 5.966944610562404 -9.495773757235687 -0.1
v 6.01736776770095 -6.332933969975318 0
v 6.01736776770095 -6.332933969975318 -0.1
v 7.931097723536768 -5.254276888087507 0
v 7.931097723536768 -5.254276888087507 -0.1
v 7.931097723536768 -6.762067222218267 0
v 7.931097723536768 -6.762067222218267 -0.1
v 10.96989756598215 -5.022315039062612 0
v 10.96989756598215 -5.022315039062612 -0.1
vt 11.006884765342136 -0.7846241731634918 0
vt 12.544152466918634 -0.7846241731634918 0
vt 12.56537923671708 -1.0072625914104882 0
vt 18.68267374744032 -1.0178632044867277 0
vt 18.703874973592796 -0.7952247862397314 0
vt 19.92309873923614 -0.8164260123922102 0
vt 19.92309873923614 -1.0178632044867277 0
vt 21.07869328277608 -1.0390644306392067 0
vt 21.08929389585232 -0.8058253993159707 0
vt 22.319118274571906 -0.7952247862397314 0
vt 22.329718887648145 -1.0284638175629672 0
vt 28.527782406918536 -1.033521459464402 0
vt 28.527782406918536 -0.7875872360956454 0
vt 30.080759450764642 -0.794611738736527 0
vt 30.094374214064967 -36.25838805326156 0
vt 29.368142815581677 -36.22681610684654 0
vt 29.35235684237417 -38.484440168333954 0
vt 32.46515662718549 -38.573204338068734 0
vt 32.51711240308205 -44.5688344630519 0
vt 5.722185394908121 -44.55506643787577 0
vt 5.751713849645791 -37.768553946467236 0
vt 5.064053356572432 -37.69802793995279 0
vt 5.156138200282898 -25.340625068697737 0
vt 5.64672946472207 -25.289001360198746 0
vt 5.6767177050871425 -18.898747448673834 0
vt 3.5116638165835647 -18.86043197972357 0
vt 3.5116638165835647 -18.671357912277003 0
vt 2.6254781070559083 -18.635928875320996 0
vt 2.587188181751612 -9.472707844927628 0
vt 5.966944610562404 -9.495773757235687 0
vt 6.01736776770095 -6.332933969975318 0
vt 7.931097723536768 -5.254276888087507 0
vt 7.931097723536768 -6.762067222218267 0
vt 10.96989756598215 -5.022315039062612 0
vn 0 0 1
vn 0 0 -1
usemtl floor_1
s off
f 57/29/1 55/28/1 53/27/1
f 54/27/2 56/28/2 58/29/2
f 57/29/1 53/27/1 59/30/1
f 60/30/2 54/27/2 58/29/2
f 1/1/1 67/34/1 5/3/1
f 6/3/2 68/34/2 2/1/2
f 1/1/1 5/3/1 3/2/1
f 4/2/2 6/3/2 2/1/2
f 25/13/1 23/12/1 27/14/1
f 28/14/2 24/12/2 26/13/2
f 27/14/1 23/12/1 29/15/1
f 30/15/2 24/12/2 28/14/2
f 35/18/1 33/17/1 37/19/1
f 38/19/2 34/17/2 36/18/2
f 37/19/1 33/17/1 39/20/1
f 40/20/2 34/17/2 38/19/2
f 39/20/1 33/17/1 41/21/1
f 42/21/2 34/17/2 40/20/2
f 53/27/1 51/26/1 49/25/1
f 50/25/2 52/26/2 54/27/2
f 53/27/1 49/25/1 59/30/1
f 60/30/2 50/25/2 54/27/2
f 59/30/1 49/25/1 67/34/1
f 68/34/2 50/25/2 60/30/2
f 59/30/1 67/34/1 65/33/1
f 66/33/2 68/34/2 60/30/2
f 59/30/1 65/33/1 61/31/1
f 62/31/2 66/33/2 60/30/2
f 61/31/1 65/33/1 63/32/1
f 64/32/2 66/33/2 62/31/2
f 67/34/1 49/25/1 15/8/1
f 16/8/2 50/25/2 68/34/2
f 67/34/1 15/8/1 13/7/1
f 14/7/2 16/8/2 68/34/2
f 67/34/1 13/7/1 7/4/1
f 8/4/2 14/7/2 68/34/2
f 67/34/1 7/4/1 5/3/1
f 6/3/2 8/4/2 68/34/2
f 9/5/1 7/4/1 13/7/1
f 14/7/2 8/4/2 10/5/2
f 9/5/1 13/7/1 11/6/1
f 12/6/2 14/7/2 10/5/2
f 19/10/1 17/9/1 21/11/1
f 22/11/2 18/9/2 20/10/2
f 21/11/1 17/9/1 15/8/1
f 16/8/2 18/9/2 22/11/2
f 21/11/1 15/8/1 49/25/1
f 50/25/2 16/8/2 22/11/2
f 21/11/1 49/25/1 31/16/1
f 32/16/2 50/25/2 22/11/2
f 21/11/1 31/16/1 23/12/1
f 24/12/2 32/16/2 22/11/2
f 23/12/1 31/16/1 29/15/1
f 30/15/2 32/16/2 24/12/2
f 33/17/1 31/16/1 41/21/1
f 42/21/2 32/16/2 34/17/2
f 41/21/1 31/16/1 47/24/1
f 48/24/2 32/16/2 42/21/2
f 41/21/1 47/24/1 45/23/1
f 46/23/2 48/24/2 42/21/2
f 41/21/1 45/23/1 43/22/1
f 44/22/2 46/23/2 42/21/2
f 49/25/1 47/24/1 31/16/1
f 32/16/2 48/24/2 50/25/2
