# The Great Editor v0.0.1
mtllib floor_3.mtl
o floor_3
v 33.96445506477988 -98.97069036329009 0
v 33.96445506477988 -98.97069036329009 -0.1
v 34.70343128103646 -98.97069036329009 0
v 34.70343128103646 -98.97069036329009 -0.1
v 35.77086211402754 -98.97069036329009 0
v 35.77086211402754 -98.97069036329009 -0.1
v 40.38050255759248 -98.97069036329009 0
v 40.38050255759248 -98.97069036329009 -0.1
v 40.38050255759248 -99.46858081618932 0
v 40.38050255759248 -99.46858081618932 -0.1
v 40.349251390807574 -102.68442668857105 0
v 40.349251390807574 -102.68442668857105 -0.1
v 39.68442668857108 -102.68442668857105 0
v 39.68442668857108 -102.68442668857105 -0.1
v 38.532837994250066 -102.68442668857105 0
v 38.532837994250066 -102.68442668857105 -0.1
v 35.79042676324532 -102.68442668857105 0
v 35.79042676324532 -102.68442668857105 -0.1
v 34.6625844752268 -102.68442668857105 0
v 34.6625844752268 -102.68442668857105 -0.1
v 33.962140163536546 -102.68442668857105 0
v 33.962140163536546 -102.68442668857105 -0.1
vt 33.96445506477988 -98.97069036329009 0
vt 34.70343128103646 -98.97069036329009 0
vt 35.77086211402754 -98.97069036329009 0
vt 40.38050255759248 -98.97069036329009 0
vt 40.38050255759248 -99.46858081618932 0
vt 40.349251390807574 -102.68442668857105 0
vt 39.68442668857108 -102.68442668857105 0
vt 38.532837994250066 -102.68442668857105 0
vt 35.79042676324532 -102.68442668857105 0
vt 34.6625844752268 -102.68442668857105 0
vt 33.962140163536546 -102.68442668857105 0
vn 0 0 1
vn 0 0 -1
usemtl floor_3
s off
f 1/1/1 21/11/1 19/10/1
f 20/10/2 22/11/2 2/1/2
f 1/1/1 19/10/1 3/2/1
f 4/2/2 20/10/2 2/1/2
f 3/2/1 19/10/1 17/9/1
f 18/9/2 20/10/2 4/2/2
f 3/2/1 17/9/1 5/3/1
f 6/3/2 18/9/2 4/2/2
f 5/3/1 17/9/1 15/8/1
f 16/8/2 18/9/2 6/3/2
f 5/3/1 15/8/1 9/5/1
f 10/5/2 16/8/2 6/3/2
f 5/3/1 9/5/1 7/4/1
f 8/4/2 10/5/2 6/3/2
f 11/6/1 9/5/1 13/7/1
f 14/7/2 10/5/2 12/6/2
f 13/7/1 9/5/1 15/8/1
f 16/8/2 10/5/2 14/7/2
