# The Great Editor v0.0.1
mtllib floor_1.mtl
o floor_1
v 18.891375035333475 -4.834948289127707 0
v 18.891375035333475 -4.834948289127707 -0.1
v 28.675116625899882 -4.834939857314881 0
v 28.675116625899882 -4.834939857314881 -0.1
v 28.675119559030136 -8.238358438372387 0
v 28.675119559030136 -8.238358438372387 -0.1
v 27.98490539571825 -8.238359033211957 0
v 27.98490539571825 -8.238359033211957 -0.1
v 27.9849074567362 -10.62983373145046 0
v 27.9849074567362 -10.62983373145046 -0.1
v 32.46472241493951 -10.596145153276098 0
v 32.46472241493951 -10.596145153276098 -0.1
v 32.46472032489144 -8.170985737652181 0
v 32.46472032489144 -8.170985737652181 -0.1
v 31.620330579523323 -8.187814800443324 0
v 31.620330579523323 -8.187814800443324 -0.1
v 31.620327689950347 -4.834937319076499 0
v 31.620327689950347 -4.834937319076499 -0.1
v 41.89868209574717 -4.834928460997029 0
v 41.89868209574717 -4.834928460997029 -0.1
v 41.91084080684356 -21.3843619239412 0
v 41.91084080684356 -21.3843619239412 -0.1
v 35.12554391363112 -21.384367771637898 0
v 35.12554391363112 -21.384367771637898 -0.1
v 35.12554771904288 -25.799926566090345 0
v 35.12554771904288 -25.799926566090345 -0.1
v 41.91084461225532 -25.799920718393643 0
v 41.91084461225532 -25.799920718393643 -0.1
v 41.90846886099629 -35.38764025455616 0
v 41.90846886099629 -35.38764025455616 -0.1
v 35.175900723551806 -35.355756361833336 0
v 35.175900723551806 -35.355756361833336 -0.1
v 35.175904406872675 -39.62964862213615 0
v 35.175904406872675 -39.62964862213615 -0.1
v 48.54388518065093 -39.79407798231668 0
v 48.54388518065093 -39.79407798231668 -0.1
v 48.54388061342201 -34.49455479332968 0
v 48.54388061342201 -34.49455479332968 -0.1
v 51.99688668851566 -34.494551817463986 0
v 51.99688668851566 -34.494551817463986 -0.1
v 51.996891401886245 -39.96364852960852 0
v 51.996891401886245 -39.96364852960852 -0.1
v 58.51346780472275 -39.93304339087947 0
v 58.51346780472275 -39.93304339087947 -0.1
v 58.51345323457358 -23.026765072094637 0
v 58.51345323457358 -23.026765072094637 -0.1
v 64.7818117213493 -23.0267596699052 0
v 64.7818117213493 -23.0267596699052 -0.1
v 64.8053160055935 -23.850113990670295 0
v 64.8053160055935 -23.850113990670295 -0.1
v 69.35726844574256 -23.838358280380948 0
v 69.35726844574256 -23.838358280380948 -0.1
v 69.38896101422017 -22.914819223869003 0
v 69.38896101422017 -22.914819223869003 -0.1
v 75.6028517897865 -22.914813868620865 0
v 75.6028517897865 -22.914813868620865 -0.1
v 75.60286607429954 -39.48965812800237 0
v 75.60286607429954 -39.48965812800237 -0.1
v 82.15974636602424 -39.489652477159396 0
v 82.15974636602424 -39.489652477159396 -0.1
v 82.15974358316899 -36.260603494757255 0
v 82.15974358316899 -36.260603494757255 -0.1
v 81.87545690921517 -36.26060373976087 0
v 81.87545690921517 -36.26060373976087 -0.1
v 81.8754552781863 -34.368061129423346 0
v 81.8754552781863 -34.368061129423346 -0.1
v 85.87835524924861 -34.368057679648736 0
v 85.87835524924861 -34.368057679648736 -0.1
v 85.87835677467166 -36.138061963377716 0
v 85.87835677467166 -36.138061963377716 -0.1
v 85.63328012145458 -36.13806217458939 0
v 85.63328012145458 -36.13806217458939 -0.1
v 85.63328298451127 -39.4601718499847 0
v 85.63328298451127 -39.4601718499847 -0.1
v 92.28347645705321 -39.53303280961972 0
v 92.28347645705321 -39.53303280961972 -0.1
v 92.27070278482113 -25.39456686691366 0
v 92.27070278482113 -25.39456686691366 -0.1
v 98.9920239575039 -25.394561074352445 0
v 98.9920239575039 -25.394561074352445 -0.1
v 99.1108570696223 -21.935861310141497 0
v 99.1108570696223 -21.935861310141497 -0.1
v 92.32710280105779 -21.967504426459417 0
v 92.32710280105779 -21.967504426459417 -0.1
v 92.28344631841834 -4.562069679583596 0
v 92.28344631841834 -4.562069679583596 -0.1
v 102.36549826536135 -4.6431174713173435 0
v 102.36549826536135 -4.6431174713173435 -0.1
v 115.92916431732223 -4.562049301258342 0
v 115.92916431732223 -4.562049301258342 -0.1
v 115.80434091583277 -21.73222406891279 0
v 115.80434091583277 -21.73222406891279 -0.1
v 109.02232554796093 -21.732229913781403 0
v 109.02232554796093 -21.732229913781403 -0.1
v 109.05590142900215 -25.622323916423085 0
v 109.05590142900215 -25.622323916423085 -0.1
v 115.93064092316551 -25.62231799164307 0
v 115.93064092316551 -25.62231799164307 -0.1
v 115.92235346304456 -42.4686874446974 0
v 115.92235346304456 -42.4686874446974 -0.1
v 120.93969358998794 -42.54993593187115 0
v 120.93969358998794 -42.54993593187115 -0.1
v 120.8588931702743 -46.76879960610037 0
v 120.8588931702743 -46.76879960610037 -0.1
v 115.92920069189847 -46.768803854602226 0
v 115.92920069189847 -46.768803854602226 -0.1
v 115.92922763047582 -78.0266228964309 0
v 115.92922763047582 -78.0266228964309 -0.1
v 92.01335875908545 -78.02664350757726 0
v 92.01335875908545 -78.02664350757726 -0.1
v 92.04755060258813 -48.12342126853497 0
v 92.04755060258813 -48.12342126853497 -0.1
v 85.93182511498925 -48.12342653918241 0
v 85.93182511498925 -48.12342653918241 -0.1
v 85.93182408786431 -46.931615801581856 0
v 85.93182408786431 -46.931615801581856 -0.1
v 81.81106967679075 -46.931619352925644 0
v 81.81106967679075 -46.931619352925644 -0.1
v 81.81107081865842 -48.25657026823523 0
v 81.81107081865842 -48.25657026823523 -0.1
v 76.74829427041492 -48.27211279415544 0
v 76.74829427041492 -48.27211279415544 -0.1
v 76.8431732737048 -75.29390324786314 0
v 76.8431732737048 -75.29390324786314 -0.1
v 55.14188512763509 -75.15003968550684 0
v 55.14188512763509 -75.15003968550684 -0.1
v 55.14186192009341 -48.22147812639464 0
v 55.14186192009341 -48.22147812639464 -0.1
v 51.85416618744731 -48.21859209560401 0
v 51.85416618744731 -48.21859209560401 -0.1
v 51.85416529633611 -47.18460309383003 0
v 51.85416529633611 -47.18460309383003 -0.1
v 48.78787436138405 -47.18460573641732 0
v 48.78787436138405 -47.18460573641732 -0.1
v 48.78787537835691 -48.36463663946177 0
v 48.78787537835691 -48.36463663946177 -0.1
v 42.18841939887947 -48.36464232699728 0
v 42.18841939887947 -48.36464232699728 -0.1
v 42.18842055174522 -49.70235472974262 0
v 42.18842055174522 -49.70235472974262 -0.1
v 35.37796529758797 -49.70236059912127 0
v 35.37796529758797 -49.70236059912127 -0.1
v 35.37796845237205 -53.36297223465357 0
v 35.37796845237205 -53.36297223465357 -0.1
v 41.97686348734681 -53.36296654760151 0
v 41.97686348734681 -53.36296654760151 -0.1
v 41.976875335577404 -67.1109029385459 0
v 41.976875335577404 -67.1109029385459 -0.1
v 35.22540339587605 -67.11090875709161 0
v 35.22540339587605 -67.11090875709161 -0.1
v 35.225406720755856 -70.9688887158888 0
v 35.225406720755856 -70.9688887158888 -0.1
v 42.1522579592174 -70.96888274619792 0
v 42.1522579592174 -70.96888274619792 -0.1
v 42.152264268954745 -78.29030234783843 0
v 42.152264268954745 -78.29030234783843 -0.1
v 31.849649013417398 -78.29031122682636 0
v 31.849649013417398 -78.29031122682636 -0.1
v 31.849645764098092 -74.5200068937967 0
v 31.849645764098092 -74.5200068937967 -0.1
v 28.69312690589135 -74.52000961414413 0
v 28.69312690589135 -74.52000961414413 -0.1
v 28.69313019299091 -78.33415176005755 0
v 28.69313019299091 -78.33415176005755 -0.1
v 18.43435275033732 -78.33416060126521 0
v 18.43435275033732 -78.33416060126521 -0.1
v 18.43434656443122 -71.15642693398394 0
v 18.43434656443122 -71.15642693398394 -0.1
v 25.226515027801376 -71.15642108036519 0
v 25.226515027801376 -71.15642108036519 -0.1
v 25.226511509355177 -67.07383894269844 0
v 25.226511509355177 -67.07383894269844 -0.1
v 18.358082640846852 -67.07384486203983 0
v 18.358082640846852 -67.07384486203983 -0.1
v 18.358071309985764 -53.92623127785424 0
v 18.358071309985764 -53.92623127785424 -0.1
v 25.221030969593045 -53.92622536322631 0
v 25.221030969593045 -53.92622536322631 -0.1
v 25.221027199834438 -49.55203622584587 0
v 25.221027199834438 -49.55203622584587 -0.1
v 12.92804061269369 -49.5520468201733 0
v 12.92804061269369 -49.5520468201733 -0.1
v 12.9280320982139 -39.6723837196501 0
v 12.9280320982139 -39.6723837196501 -0.1
v 25.221018685354647 -39.672373125322665 0
v 25.221018685354647 -39.672373125322665 -0.1
v 25.221015175586057 -35.59985994147884 0
v 25.221015175586057 -35.59985994147884 -0.1
v 18.908874970376853 -35.59986538140019 0
v 18.908874970376853 -35.59986538140019 -0.1
v 31.245231992273133 -74.43721163490477 0
v 31.245231992273133 -74.43721163490477 -0.1
v 31.191009096605757 -74.5200074614222 0
v 31.191009096605757 -74.5200074614222 -0.1
v 31.258219762410675 -74.52000740349878 0
v 31.258219762410675 -74.52000740349878 -0.1
v 29.145231992273132 -74.43721163490477 0
v 29.145231992273132 -74.43721163490477 -0.1
v 29.135626265272485 -74.52000923278985 0
v 29.135626265272485 -74.52000923278985 -0.1
v 31.245231992273133 -72.33721163490478 0
v 31.245231992273133 -72.33721163490478 -0.1
v 29.145231992273132 -72.33721163490478 0
v 29.145231992273132 -72.33721163490478 -0.1
v 51.0237973178796 -44.843196255433 0
v 51.0237973178796 -44.843196255433 -0.1
v 42.001792201719034 -39.71360867427598 0
v 42.001792201719034 -39.71360867427598 -0.1
v 49.62379731787959 -44.843196255433 0
v 49.62379731787959 -44.843196255433 -0.1
v 51.0237973178796 -46.943196255432994 0
v 51.0237973178796 -46.943196255432994 -0.1
v 51.180969859100976 -47.18460367400254 0
v 51.180969859100976 -47.18460367400254 -0.1
v 50.04596411188956 -47.18460465217187 0
v 50.04596411188956 -47.18460465217187 -0.1
v 49.62379731787959 -46.943196255432994 0
v 49.62379731787959 -46.943196255432994 -0.1
v 49.48182936488164 -47.184605138353824 0
v 49.48182936488164 -47.184605138353824 -0.1
vt 18.891375035333475 -4.834948289127707 0
vt 28.675116625899882 -4.834939857314881 0
vt 28.675119559030136 -8.238358438372387 0
vt 27.98490539571825 -8.238359033211957 0
vt 27.9849074567362 -10.62983373145046 0
vt 32.46472241493951 -10.596145153276098 0
vt 32.46472032489144 -8.170985737652181 0
vt 31.620330579523323 -8.187814800443324 0
vt 31.620327689950347 -4.834937319076499 0
vt 41.89868209574717 -4.834928460997029 0
vt 41.91084080684356 -21.3843619239412 0
vt 35.12554391363112 -21.384367771637898 0
vt 35.12554771904288 -25.799926566090345 0
vt 41.91084461225532 -25.799920718393643 0
vt 41.90846886099629 -35.38764025455616 0
vt 35.175900723551806 -35.355756361833336 0
vt 35.175904406872675 -39.62964862213615 0
vt 48.54388518065093 -39.79407798231668 0
vt 48.54388061342201 -34.49455479332968 0
vt 51.99688668851566 -34.494551817463986 0
vt 51.996891401886245 -39.96364852960852 0
vt 58.51346780472275 -39.93304339087947 0
vt 58.51345323457358 -23.026765072094637 0
vt 64.7818117213493 -23.0267596699052 0
vt 64.8053160055935 -23.850113990670295 0
vt 69.35726844574256 -23.838358280380948 0
vt 69.38896101422017 -22.914819223869003 0
vt 75.6028517897865 -22.914813868620865 0
vt 75.60286607429954 -39.48965812800237 0
vt 82.15974636602424 -39.489652477159396 0
vt 82.15974358316899 -36.260603494757255 0
vt 81.87545690921517 -36.26060373976087 0
vt 81.8754552781863 -34.368061129423346 0
vt 85.87835524924861 -34.368057679648736 0
vt 85.87835677467166 -36.138061963377716 0
vt 85.63328012145458 -36.13806217458939 0
vt 85.63328298451127 -39.4601718499847 0
vt 92.28347645705321 -39.53303280961972 0
vt 92.27070278482113 -25.39456686691366 0
vt 98.9920239575039 -25.394561074352445 0
vt 99.1108570696223 -21.935861310141497 0
vt 92.32710280105779 -21.967504426459417 0
vt 92.28344631841834 -4.562069679583596 0
vt 102.36549826536135 -4.6431174713173435 0
vt 115.92916431732223 -4.562049301258342 0
vt 115.80434091583277 -21.73222406891279 0
vt 109.02232554796093 -21.732229913781403 0
vt 109.05590142900215 -25.622323916423085 0
vt 115.93064092316551 -25.62231799164307 0
vt 115.92235346304456 -42.4686874446974 0
vt 120.93969358998794 -42.54993593187115 0
vt 120.8588931702743 -46.76879960610037 0
vt 115.92920069189847 -46.768803854602226 0
vt 115.92922763047582 -78.0266228964309 0
vt 92.01335875908545 -78.02664350757726 0
vt 92.04755060258813 -48.12342126853497 0
vt 85.93182511498925 -48.12342653918241 0
vt 85.93182408786431 -46.931615801581856 0
vt 81.81106967679075 -46.931619352925644 0
vt 81.81107081865842 -48.25657026823523 0
vt 76.74829427041492 -48.27211279415544 0
vt 76.8431732737048 -75.29390324786314 0
vt 55.14188512763509 -75.15003968550684 0
vt 55.14186192009341 -48.22147812639464 0
vt 51.85416618744731 -48.21859209560401 0
vt 51.85416529633611 -47.18460309383003 0
vt 48.78787436138405 -47.18460573641732 0
vt 48.78787537835691 -48.36463663946177 0
vt 42.18841939887947 -48.36464232699728 0
vt 42.18842055174522 -49.70235472974262 0
vt 35.37796529758797 -49.70236059912127 0
vt 35.37796845237205 -53.36297223465357 0
vt 41.97686348734681 -53.36296654760151 0
vt 41.976875335577404 -67.1109029385459 0
vt 35.22540339587605 -67.11090875709161 0
vt 35.225406720755856 -70.9688887158888 0
vt 42.1522579592174 -70.96888274619792 0
vt 42.152264268954745 -78.29030234783843 0
vt 31.849649013417398 -78.29031122682636 0
vt 31.849645764098092 -74.5200068937967 0
vt 28.69312690589135 -74.52000961414413 0
vt 28.69313019299091 -78.33415176005755 0
vt 18.43435275033732 -78.33416060126521 0
vt 18.43434656443122 -71.15642693398394 0
vt 25.226515027801376 -71.15642108036519 0
vt 25.226511509355177 -67.07383894269844 0
vt 18.358082640846852 -67.07384486203983 0
vt 18.358071309985764 -53.92623127785424 0
vt 25.221030969593045 -53.92622536322631 0
vt 25.221027199834438 -49.55203622584587 0
vt 12.92804061269369 -49.5520468201733 0
vt 12.9280320982139 -39.6723837196501 0
vt 25.221018685354647 -39.672373125322665 0
vt 25.221015175586057 -35.59985994147884 0
vt 18.908874970376853 -35.59986538140019 0
vt 31.245231992273133 -74.43721163490477 0
vt 31.191009096605757 -74.5200074614222 0
vt 31.258219762410675 -74.52000740349878 0
vt 29.145231992273132 -74.43721163490477 0
vt 29.135626265272485 -74.52000923278985 0
vt 31.245231992273133 -72.33721163490478 0
vt 29.145231992273132 -72.33721163490478 0
vt 51.0237973178796 -44.843196255433 0
vt 42.001792201719034 -39.71360867427598 0
vt 49.62379731787959 -44.843196255433 0
vt 51.0237973178796 -46.943196255432994 0
vt 51.180969859100976 -47.18460367400254 0
vt 50.04596411188956 -47.18460465217187 0
vt 49.62379731787959 -46.943196255432994 0
vt 49.48182936488164 -47.184605138353824 0
vn 0 0 1
vn 0 0 -1
usemtl floor_1
s off
f 1/1/1 189/95/1 9/5/1
f 10/5/2 190/95/2 2/1/2
f 1/1/1 9/5/1 7/4/1
f 8/4/2 10/5/2 2/1/2
f 1/1/1 7/4/1 3/2/1
f 4/2/2 8/4/2 2/1/2
f 85/43/1 83/42/1 81/41/1
f 82/41/2 84/42/2 86/43/2
f 85/43/1 81/41/1 87/44/1
f 88/44/2 82/41/2 86/43/2
f 89/45/1 87/44/1 93/47/1
f 94/47/2 88/44/2 90/45/2
f 89/45/1 93/47/1 91/46/1
f 92/46/2 94/47/2 90/45/2
f 101/51/1 99/50/1 103/52/1
f 104/52/2 100/50/2 102/51/2
f 107/54/1 105/53/1 111/56/1
f 112/56/2 106/53/2 108/54/2
f 107/54/1 111/56/1 109/55/1
f 110/55/2 112/56/2 108/54/2
f 155/78/1 153/77/1 151/76/1
f 152/76/2 154/77/2 156/78/2
f 155/78/1 151/76/1 159/80/1
f 160/80/2 152/76/2 156/78/2
f 155/78/1 159/80/1 157/79/1
f 158/79/2 160/80/2 156/78/2
f 191/96/1 193/97/1 195/98/1
f 196/98/2 194/97/2 192/96/2
f 197/99/1 199/100/1 193/97/1
f 194/97/2 200/100/2 198/99/2
f 197/99/1 193/97/1 191/96/1
f 192/96/2 194/97/2 198/99/2
f 161/81/1 199/100/1 197/99/1
f 198/99/2 200/100/2 162/81/2
f 163/82/1 161/81/1 165/83/1
f 166/83/2 162/81/2 164/82/2
f 165/83/1 161/81/1 169/85/1
f 170/85/2 162/81/2 166/83/2
f 165/83/1 169/85/1 167/84/1
f 168/84/2 170/85/2 166/83/2
f 181/91/1 179/90/1 185/93/1
f 186/93/2 180/90/2 182/91/2
f 181/91/1 185/93/1 183/92/1
f 184/92/2 186/93/2 182/91/2
f 189/95/1 187/94/1 23/12/1
f 24/12/2 188/94/2 190/95/2
f 189/95/1 23/12/1 9/5/1
f 10/5/2 24/12/2 190/95/2
f 9/5/1 23/12/1 11/6/1
f 12/6/2 24/12/2 10/5/2
f 7/4/1 5/3/1 3/2/1
f 4/2/2 6/3/2 8/4/2
f 17/9/1 15/8/1 13/7/1
f 14/7/2 16/8/2 18/9/2
f 17/9/1 13/7/1 19/10/1
f 20/10/2 14/7/2 18/9/2
f 19/10/1 13/7/1 11/6/1
f 12/6/2 14/7/2 20/10/2
f 19/10/1 11/6/1 21/11/1
f 22/11/2 12/6/2 20/10/2
f 53/27/1 51/26/1 55/28/1
f 56/28/2 52/26/2 54/27/2
f 55/28/1 51/26/1 57/29/1
f 58/29/2 52/26/2 56/28/2
f 81/41/1 79/40/1 95/48/1
f 96/48/2 80/40/2 82/41/2
f 81/41/1 95/48/1 93/47/1
f 94/47/2 96/48/2 82/41/2
f 81/41/1 93/47/1 87/44/1
f 88/44/2 94/47/2 82/41/2
f 97/49/1 95/48/1 99/50/1
f 100/50/2 96/48/2 98/49/2
f 99/50/1 95/48/1 75/38/1
f 76/38/2 96/48/2 100/50/2
f 99/50/1 75/38/1 111/56/1
f 112/56/2 76/38/2 100/50/2
f 99/50/1 111/56/1 105/53/1
f 106/53/2 112/56/2 100/50/2
f 99/50/1 105/53/1 103/52/1
f 104/52/2 106/53/2 100/50/2
f 111/56/1 75/38/1 115/58/1
f 116/58/2 76/38/2 112/56/2
f 111/56/1 115/58/1 113/57/1
f 114/57/2 116/58/2 112/56/2
f 123/62/1 121/61/1 125/63/1
f 126/63/2 122/61/2 124/62/2
f 125/63/1 121/61/1 127/64/1
f 128/64/2 122/61/2 126/63/2
f 151/76/1 149/75/1 201/101/1
f 202/101/2 150/75/2 152/76/2
f 151/76/1 201/101/1 159/80/1
f 160/80/2 202/101/2 152/76/2
f 159/80/1 201/101/1 191/96/1
f 192/96/2 202/101/2 160/80/2
f 191/96/1 195/98/1 159/80/1
f 160/80/2 196/98/2 192/96/2
f 197/99/1 203/102/1 161/81/1
f 162/81/2 204/102/2 198/99/2
f 161/81/1 203/102/1 169/85/1
f 170/85/2 204/102/2 162/81/2
f 169/85/1 203/102/1 171/86/1
f 172/86/2 204/102/2 170/85/2
f 173/87/1 171/86/1 177/89/1
f 178/89/2 172/86/2 174/87/2
f 173/87/1 177/89/1 175/88/1
f 176/88/2 178/89/2 174/87/2
f 179/90/1 177/89/1 143/72/1
f 144/72/2 178/89/2 180/90/2
f 179/90/1 143/72/1 141/71/1
f 142/71/2 144/72/2 180/90/2
f 179/90/1 141/71/1 33/17/1
f 34/17/2 142/71/2 180/90/2
f 179/90/1 33/17/1 185/93/1
f 186/93/2 34/17/2 180/90/2
f 185/93/1 33/17/1 187/94/1
f 188/94/2 34/17/2 186/93/2
f 187/94/1 33/17/1 31/16/1
f 32/16/2 34/17/2 188/94/2
f 187/94/1 31/16/1 25/13/1
f 26/13/2 32/16/2 188/94/2
f 187/94/1 25/13/1 23/12/1
f 24/12/2 26/13/2 188/94/2
f 23/12/1 21/11/1 11/6/1
f 12/6/2 22/11/2 24/12/2
f 45/23/1 43/22/1 49/25/1
f 50/25/2 44/22/2 46/23/2
f 45/23/1 49/25/1 47/24/1
f 48/24/2 50/25/2 46/23/2
f 51/26/1 49/25/1 57/29/1
f 58/29/2 50/25/2 52/26/2
f 57/29/1 49/25/1 43/22/1
f 44/22/2 50/25/2 58/29/2
f 57/29/1 43/22/1 121/61/1
f 122/61/2 44/22/2 58/29/2
f 57/29/1 121/61/1 117/59/1
f 118/59/2 122/61/2 58/29/2
f 57/29/1 117/59/1 59/30/1
f 60/30/2 118/59/2 58/29/2
f 65/33/1 63/32/1 61/31/1
f 62/31/2 64/32/2 66/33/2
f 65/33/1 61/31/1 71/36/1
f 72/36/2 62/31/2 66/33/2
f 65/33/1 71/36/1 67/34/1
f 68/34/2 72/36/2 66/33/2
f 77/39/1 75/38/1 79/40/1
f 80/40/2 76/38/2 78/39/2
f 79/40/1 75/38/1 95/48/1
f 96/48/2 76/38/2 80/40/2
f 75/38/1 73/37/1 115/58/1
f 116/58/2 74/37/2 76/38/2
f 115/58/1 73/37/1 59/30/1
f 60/30/2 74/37/2 116/58/2
f 115/58/1 59/30/1 117/59/1
f 118/59/2 60/30/2 116/58/2
f 119/60/1 117/59/1 121/61/1
f 122/61/2 118/59/2 120/60/2
f 59/30/1 73/37/1 61/31/1
f 62/31/2 74/37/2 60/30/2
f 61/31/1 73/37/1 71/36/1
f 72/36/2 74/37/2 62/31/2
f 71/36/1 69/35/1 67/34/1
f 68/34/2 70/35/2 72/36/2
f 121/61/1 43/22/1 127/64/1
f 128/64/2 44/22/2 122/61/2
f 127/64/1 43/22/1 205/103/1
f 206/103/2 44/22/2 128/64/2
f 127/64/1 205/103/1 131/66/1
f 132/66/2 206/103/2 128/64/2
f 127/64/1 131/66/1 129/65/1
f 130/65/2 132/66/2 128/64/2
f 147/74/1 145/73/1 143/72/1
f 144/72/2 146/73/2 148/74/2
f 147/74/1 143/72/1 149/75/1
f 150/75/2 144/72/2 148/74/2
f 149/75/1 143/72/1 177/89/1
f 178/89/2 144/72/2 150/75/2
f 149/75/1 177/89/1 171/86/1
f 172/86/2 178/89/2 150/75/2
f 149/75/1 171/86/1 201/101/1
f 202/101/2 172/86/2 150/75/2
f 201/101/1 171/86/1 203/102/1
f 204/102/2 172/86/2 202/101/2
f 141/71/1 139/70/1 137/69/1
f 138/69/2 140/70/2 142/71/2
f 141/71/1 137/69/1 33/17/1
f 34/17/2 138/69/2 142/71/2
f 33/17/1 137/69/1 207/104/1
f 208/104/2 138/69/2 34/17/2
f 31/16/1 29/15/1 27/14/1
f 28/14/2 30/15/2 32/16/2
f 31/16/1 27/14/1 25/13/1
f 26/13/2 28/14/2 32/16/2
f 39/20/1 37/19/1 35/18/1
f 36/18/2 38/19/2 40/20/2
f 39/20/1 35/18/1 41/21/1
f 42/21/2 36/18/2 40/20/2
f 43/22/1 41/21/1 205/103/1
f 206/103/2 42/21/2 44/22/2
f 205/103/1 41/21/1 209/105/1
f 210/105/2 42/21/2 206/103/2
f 205/103/1 211/106/1 131/66/1
f 132/66/2 212/106/2 206/103/2
f 211/106/1 213/107/1 131/66/1
f 132/66/2 214/107/2 212/106/2
f 215/108/1 211/106/1 217/109/1
f 218/109/2 212/106/2 216/108/2
f 215/108/1 213/107/1 211/106/1
f 212/106/2 214/107/2 216/108/2
f 217/109/1 219/110/1 215/108/1
f 216/108/2 220/110/2 218/109/2
f 137/69/1 135/68/1 133/67/1
f 134/67/2 136/68/2 138/69/2
f 137/69/1 133/67/1 209/105/1
f 210/105/2 134/67/2 138/69/2
f 137/69/1 209/105/1 35/18/1
f 36/18/2 210/105/2 138/69/2
f 207/104/1 137/69/1 35/18/1
f 36/18/2 138/69/2 208/104/2
f 35/18/1 209/105/1 41/21/1
f 42/21/2 210/105/2 36/18/2
f 209/105/1 133/67/1 217/109/1
f 218/109/2 134/67/2 210/105/2
f 133/67/1 219/110/1 217/109/1
f 218/109/2 220/110/2 134/67/2
