# The Great Editor v0.0.1
mtllib floor_1.mtl
o floor_1
v 17.190883576655903 -3.0036204911029403 0
v 17.190883576655903 -3.0036204911029403 -0.1
v 86.86684627957953 -3.36113692930644 0
v 86.86684627957953 -3.36113692930644 -0.1
v 83.95858594301428 -84.11051710687624 0
v 83.95858594301428 -84.11051710687624 -0.1
v 12.210082469631123 -83.8833916564509 0
v 12.210082469631123 -83.8833916564509 -0.1
v 12.46455384672537 -54.36552527954237 0
v 12.46455384672537 -54.36552527954237 -0.1
v 2.2859792339982925 -54.619996656636616 0
v 2.2859792339982925 -54.619996656636616 -0.1
v 2.2859792339982925 -38.07983394628332 0
v 2.2859792339982925 -38.07983394628332 -0.1
v 12.718997176715341 -36.0441190237379 0
v 12.718997176715341 -36.0441190237379 -0.1
vt 17.190883576655903 -3.0036204911029403 0
vt 86.86684627957953 -3.36113692930644 0
vt 83.95858594301428 -84.11051710687624 0
vt 12.210082469631123 -83.8833916564509 0
vt 12.46455384672537 -54.36552527954237 0
vt 2.2859792339982925 -54.619996656636616 0
vt 2.2859792339982925 -38.07983394628332 0
vt 12.718997176715341 -36.0441190237379 0
vn 0 0 1
vn 0 0 -1
usemtl floor_1
s off
f 1/1/1 15/8/1 3/2/1
f 4/2/2 16/8/2 2/1/2
f 3/2/1 15/8/1 5/3/1
f 6/3/2 16/8/2 4/2/2
f 5/3/1 15/8/1 9/5/1
f 10/5/2 16/8/2 6/3/2
f 5/3/1 9/5/1 7/4/1
f 8/4/2 10/5/2 6/3/2
f 11/6/1 9/5/1 13/7/1
f 14/7/2 10/5/2 12/6/2
f 13/7/1 9/5/1 15/8/1
f 16/8/2 10/5/2 14/7/2
