# The Great Editor v0.0.1
mtllib floor_2.mtl
o floor_2
v 33.962140163536546 -102.68442668857105 0
v 33.962140163536546 -102.68442668857105 -0.1
v 34.6625844752268 -102.68442668857105 0
v 34.6625844752268 -102.68442668857105 -0.1
v 35.79042676324532 -102.68442668857105 0
v 35.79042676324532 -102.68442668857105 -0.1
v 38.532837994250066 -102.68442668857105 0
v 38.532837994250066 -102.68442668857105 -0.1
v 39.68442668857108 -102.68442668857105 0
v 39.68442668857108 -102.68442668857105 -0.1
v 40.349251390807574 -102.68442668857105 0
v 40.349251390807574 -102.68442668857105 -0.1
v 40.38050255759248 -105.05208527797477 0
v 40.38050255759248 -105.05208527797477 -0.1
v 40.58839562408988 -105.05208527797477 0
v 40.58839562408988 -105.05208527797477 -0.1
v 40.58839562408988 -105.6758018145838 0
v 40.58839562408988 -105.6758018145838 -0.1
v 40.29731546130005 -105.6758018145838 0
v 40.29731546130005 -105.6758018145838 -0.1
v 40.29731546130005 -111.12291378859717 0
v 40.29731546130005 -111.12291378859717 -0.1
v 33.96445506477988 -111.04062278310863 0
v 33.96445506477988 -111.04062278310863 -0.1
vt 33.962140163536546 -102.68442668857105 0
vt 34.6625844752268 -102.68442668857105 0
vt 35.79042676324532 -102.68442668857105 0
vt 38.532837994250066 -102.68442668857105 0
vt 39.68442668857108 -102.68442668857105 0
vt 40.349251390807574 -102.68442668857105 0
vt 40.38050255759248 -105.05208527797477 0
vt 40.58839562408988 -105.05208527797477 0
vt 40.58839562408988 -105.6758018145838 0
vt 40.29731546130005 -105.6758018145838 0
vt 40.29731546130005 -111.12291378859717 0
vt 33.96445506477988 -111.04062278310863 0
vn 0 0 1
vn 0 0 -1
usemtl floor_2
s off
f 1/1/1 23/12/1 3/2/1
f 4/2/2 24/12/2 2/1/2
f 3/2/1 23/12/1 5/3/1
f 6/3/2 24/12/2 4/2/2
f 5/3/1 23/12/1 19/10/1
f 20/10/2 24/12/2 6/3/2
f 5/3/1 19/10/1 7/4/1
f 8/4/2 20/10/2 6/3/2
f 7/4/1 19/10/1 13/7/1
f 14/7/2 20/10/2 8/4/2
f 7/4/1 13/7/1 9/5/1
f 10/5/2 14/7/2 8/4/2
f 9/5/1 13/7/1 11/6/1
f 12/6/2 14/7/2 10/5/2
f 15/8/1 13/7/1 17/9/1
f 18/9/2 14/7/2 16/8/2
f 21/11/1 19/10/1 23/12/1
f 24/12/2 20/10/2 22/11/2
f 19/10/1 17/9/1 13/7/1
f 14/7/2 18/9/2 20/10/2
