# The Great Editor v0.0.1
mtllib floor_1.mtl
o floor_1
v 17.190883576655903 -3.0036204911029403 0
v 17.190883576655903 -3.0036204911029403 -0.1
v 125.45049035996888 -2.8678725064081148 0
v 125.45049035996888 -2.8678725064081148 -0.1
v 125.6246909246258 -83.13517905568563 0
v 125.6246909246258 -83.13517905568563 -0.1
v 12.210082469631123 -83.8833916564509 0
v 12.210082469631123 -83.8833916564509 -0.1
v 12.46455384672537 -54.36552527954237 0
v 12.46455384672537 -54.36552527954237 -0.1
v 2.2859792339982925 -54.619996656636616 0
v 2.2859792339982925 -54.619996656636616 -0.1
v 2.2859792339982925 -38.07983394628332 0
v 2.2859792339982925 -38.07983394628332 -0.1
v 12.718997176715341 -36.0441190237379 0
v 12.718997176715341 -36.0441190237379 -0.1
v 49.4387973178796 -44.743196255433 0
v 49.4387973178796 -44.743196255433 -0.1
v 51.20879731787959 -44.743196255433 0
v 51.20879731787959 -44.743196255433 -0.1
v 102.95763772799889 -71.88284854563696 0
v 102.95763772799889 -71.88284854563696 -0.1
v 105.05763772799888 -71.88284854563696 0
v 105.05763772799888 -71.88284854563696 -0.1
v 105.05763772799888 -73.98284854563695 0
v 105.05763772799888 -73.98284854563695 -0.1
v 102.95763772799889 -73.98284854563695 0
v 102.95763772799889 -73.98284854563695 -0.1
v 31.245231992273133 -74.43721163490477 0
v 31.245231992273133 -74.43721163490477 -0.1
v 29.145231992273132 -74.43721163490477 0
v 29.145231992273132 -74.43721163490477 -0.1
v 29.145231992273132 -72.33721163490478 0
v 29.145231992273132 -72.33721163490478 -0.1
v 49.4387973178796 -47.043196255432996 0
v 49.4387973178796 -47.043196255432996 -0.1
v 51.20879731787959 -47.043196255432996 0
v 51.20879731787959 -47.043196255432996 -0.1
v 31.245231992273133 -72.33721163490478 0
v 31.245231992273133 -72.33721163490478 -0.1
vt 17.190883576655903 -3.0036204911029403 0
vt 125.45049035996888 -2.8678725064081148 0
vt 125.6246909246258 -83.13517905568563 0
vt 12.210082469631123 -83.8833916564509 0
vt 12.46455384672537 -54.36552527954237 0
vt 2.2859792339982925 -54.619996656636616 0
vt 2.2859792339982925 -38.07983394628332 0
vt 12.718997176715341 -36.0441190237379 0
vt 49.4387973178796 -44.743196255433 0
vt 51.20879731787959 -44.743196255433 0
vt 102.95763772799889 -71.88284854563696 0
vt 105.05763772799888 -71.88284854563696 0
vt 105.05763772799888 -73.98284854563695 0
vt 102.95763772799889 -73.98284854563695 0
vt 31.245231992273133 -74.43721163490477 0
vt 29.145231992273132 -74.43721163490477 0
vt 29.145231992273132 -72.33721163490478 0
vt 49.4387973178796 -47.043196255432996 0
vt 51.20879731787959 -47.043196255432996 0
vt 31.245231992273133 -72.33721163490478 0
vn 0 0 1
vn 0 0 -1
usemtl floor_1
s off
f 1/1/1 15/8/1 17/9/1
f 18/9/2 16/8/2 2/1/2
f 1/1/1 17/9/1 19/10/1
f 20/10/2 18/9/2 2/1/2
f 1/1/1 19/10/1 3/2/1
f 4/2/2 20/10/2 2/1/2
f 3/2/1 19/10/1 21/11/1
f 22/11/2 20/10/2 4/2/2
f 3/2/1 21/11/1 23/12/1
f 24/12/2 22/11/2 4/2/2
f 3/2/1 23/12/1 5/3/1
f 6/3/2 24/12/2 4/2/2
f 5/3/1 23/12/1 25/13/1
f 26/13/2 24/12/2 6/3/2
f 5/3/1 25/13/1 27/14/1
f 28/14/2 26/13/2 6/3/2
f 5/3/1 27/14/1 7/4/1
f 8/4/2 28/14/2 6/3/2
f 7/4/1 27/14/1 29/15/1
f 30/15/2 28/14/2 8/4/2
f 7/4/1 29/15/1 31/16/1
f 32/16/2 30/15/2 8/4/2
f 7/4/1 31/16/1 33/17/1
f 34/17/2 32/16/2 8/4/2
f 7/4/1 33/17/1 9/5/1
f 10/5/2 34/17/2 8/4/2
f 11/6/1 9/5/1 13/7/1
f 14/7/2 10/5/2 12/6/2
f 13/7/1 9/5/1 15/8/1
f 16/8/2 10/5/2 14/7/2
f 15/8/1 9/5/1 17/9/1
f 18/9/2 10/5/2 16/8/2
f 17/9/1 9/5/1 35/18/1
f 36/18/2 10/5/2 18/9/2
f 19/10/1 37/19/1 21/11/1
f 22/11/2 38/19/2 20/10/2
f 21/11/1 37/19/1 27/14/1
f 28/14/2 38/19/2 22/11/2
f 27/14/1 37/19/1 29/15/1
f 30/15/2 38/19/2 28/14/2
f 29/15/1 37/19/1 39/20/1
f 40/20/2 38/19/2 30/15/2
f 33/17/1 39/20/1 9/5/1
f 10/5/2 40/20/2 34/17/2
f 9/5/1 39/20/1 35/18/1
f 36/18/2 40/20/2 10/5/2
f 35/18/1 39/20/1 37/19/1
f 38/19/2 40/20/2 36/18/2
