# The Great Editor v0.0.1
mtllib floor_1.mtl
o floor_1
v 17.190883576655903 -3.0036204911029403 0
v 17.190883576655903 -3.0036204911029403 -0.1
v 125.45049035996888 -2.8678725064081148 0
v 125.45049035996888 -2.8678725064081148 -0.1
v 125.6246909246258 -83.13517905568563 0
v 125.6246909246258 -83.13517905568563 -0.1
v 12.210082469631123 -83.8833916564509 0
v 12.210082469631123 -83.8833916564509 -0.1
v 12.46455384672537 -54.36552527954237 0
v 12.46455384672537 -54.36552527954237 -0.1
v 2.2859792339982925 -54.619996656636616 0
v 2.2859792339982925 -54.619996656636616 -0.1
v 2.2859792339982925 -38.07983394628332 0
v 2.2859792339982925 -38.07983394628332 -0.1
v 12.718997176715341 -36.0441190237379 0
v 12.718997176715341 -36.0441190237379 -0.1
v 49.62379731787959 -44.843196255433 0
v 49.62379731787959 -44.843196255433 -0.1
v 51.0237973178796 -44.843196255433 0
v 51.0237973178796 -44.843196255433 -0.1
v 51.0237973178796 -46.943196255432994 0
v 51.0237973178796 -46.943196255432994 -0.1
v 31.245231992273133 -74.43721163490477 0
v 31.245231992273133 -74.43721163490477 -0.1
v 29.145231992273132 -74.43721163490477 0
v 29.145231992273132 -74.43721163490477 -0.1
v 29.145231992273132 -72.33721163490478 0
v 29.145231992273132 -72.33721163490478 -0.1
v 49.62379731787959 -46.943196255432994 0
v 49.62379731787959 -46.943196255432994 -0.1
v 31.245231992273133 -72.33721163490478 0
v 31.245231992273133 -72.33721163490478 -0.1
vt 17.190883576655903 -3.0036204911029403 0
vt 125.45049035996888 -2.8678725064081148 0
vt 125.6246909246258 -83.13517905568563 0
vt 12.210082469631123 -83.8833916564509 0
vt 12.46455384672537 -54.36552527954237 0
vt 2.2859792339982925 -54.619996656636616 0
vt 2.2859792339982925 -38.07983394628332 0
vt 12.718997176715341 -36.0441190237379 0
vt 49.62379731787959 -44.843196255433 0
vt 51.0237973178796 -44.843196255433 0
vt 51.0237973178796 -46.943196255432994 0
vt 31.245231992273133 -74.43721163490477 0
vt 29.145231992273132 -74.43721163490477 0
vt 29.145231992273132 -72.33721163490478 0
vt 49.62379731787959 -46.943196255432994 0
vt 31.245231992273133 -72.33721163490478 0
vn 0 0 1
vn 0 0 -1
usemtl floor_1
s off
f 1/1/1 15/8/1 17/9/1
f 18/9/2 16/8/2 2/1/2
f 1/1/1 17/9/1 19/10/1
f 20/10/2 18/9/2 2/1/2
f 1/1/1 19/10/1 3/2/1
f 4/2/2 20/10/2 2/1/2
f 3/2/1 19/10/1 5/3/1
f 6/3/2 20/10/2 4/2/2
f 5/3/1 19/10/1 21/11/1
f 22/11/2 20/10/2 6/3/2
f 5/3/1 21/11/1 23/12/1
f 24/12/2 22/11/2 6/3/2
f 5/3/1 23/12/1 7/4/1
f 8/4/2 24/12/2 6/3/2
f 7/4/1 23/12/1 25/13/1
f 26/13/2 24/12/2 8/4/2
f 7/4/1 25/13/1 27/14/1
f 28/14/2 26/13/2 8/4/2
f 7/4/1 27/14/1 9/5/1
f 10/5/2 28/14/2 8/4/2
f 11/6/1 9/5/1 13/7/1
f 14/7/2 10/5/2 12/6/2
f 13/7/1 9/5/1 15/8/1
f 16/8/2 10/5/2 14/7/2
f 15/8/1 9/5/1 17/9/1
f 18/9/2 10/5/2 16/8/2
f 17/9/1 9/5/1 29/15/1
f 30/15/2 10/5/2 18/9/2
f 21/11/1 29/15/1 31/16/1
f 32/16/2 30/15/2 22/11/2
f 21/11/1 31/16/1 23/12/1
f 24/12/2 32/16/2 22/11/2
f 27/14/1 31/16/1 9/5/1
f 10/5/2 32/16/2 28/14/2
f 9/5/1 31/16/1 29/15/1
f 30/15/2 32/16/2 10/5/2
